<?xml version="1.0" encoding="UTF-8" standalone="no"?>
<svg
   xmlns:dc="http://purl.org/dc/elements/1.1/"
   xmlns:cc="http://creativecommons.org/ns#"
   xmlns:rdf="http://www.w3.org/1999/02/22-rdf-syntax-ns#"
   xmlns:svg="http://www.w3.org/2000/svg"
   xmlns="http://www.w3.org/2000/svg"
   xmlns:sodipodi="http://sodipodi.sourceforge.net/DTD/sodipodi-0.dtd"
   xmlns:inkscape="http://www.inkscape.org/namespaces/inkscape"
   sodipodi:docname="focus_logo.svg"
   inkscape:version="1.0beta1 (32d4812, 2019-09-19)"
   id="svg3310"
   version="1.1"
   viewBox="0 0 250 135"
   height="135mm"
   width="250mm">
  <defs
     id="defs3304">
    <clipPath
       clipPathUnits="userSpaceOnUse"
       id="clipPath1726">
      <path
         d="M 48,311.068 H 297.738 V 440.932 H 48 Z"
         id="path1724"
         inkscape:connector-curvature="0" />
    </clipPath>
  </defs>
  <sodipodi:namedview
     inkscape:window-maximized="0"
     inkscape:window-y="563"
     inkscape:window-x="0"
     inkscape:window-height="855"
     inkscape:window-width="1440"
     fit-margin-bottom="10"
     fit-margin-right="10"
     fit-margin-top="20"
     fit-margin-left="10"
     showgrid="false"
     inkscape:document-rotation="0"
     inkscape:current-layer="layer1"
     inkscape:document-units="mm"
     inkscape:cy="494.78729"
     inkscape:cx="540.21396"
     inkscape:zoom="0.35"
     inkscape:pageshadow="2"
     inkscape:pageopacity="0.0"
     borderopacity="1.0"
     bordercolor="#666666"
     pagecolor="#ffffff"
     id="base" />
  <metadata
     id="metadata3307">
    <rdf:RDF>
      <cc:Work
         rdf:about="">
        <dc:format>image/svg+xml</dc:format>
        <dc:type
           rdf:resource="http://purl.org/dc/dcmitype/StillImage" />
        <dc:title></dc:title>
      </cc:Work>
    </rdf:RDF>
  </metadata>
  <g
     transform="translate(37.098277,-17.254195)"
     id="layer1"
     inkscape:groupmode="layer"
     inkscape:label="Layer 1">
    <g
       transform="matrix(1.1590953,0,0,-1.1590953,-113.11293,523.61583)"
       id="g3223">
      <g
         transform="translate(73.7385,388.4983)"
         id="g1716">
        <path
           inkscape:connector-curvature="0"
           id="path1718"
           style="fill:#263379;fill-opacity:1;fill-rule:nonzero;stroke:none"
           d="m 0,0 h 19.04 v -8.144 h -8.634 v -2.942 h 7.577 v -7.389 h -7.577 v -9.953 H 0 Z" />
      </g>
      <g
         id="g1720">
        <g
           clip-path="url(#clipPath1726)"
           id="g1722">
          <g
             transform="translate(105.6749,374.0576)"
             id="g1728">
            <path
               inkscape:connector-curvature="0"
               id="path1730"
               style="fill:#263379;fill-opacity:1;fill-rule:nonzero;stroke:none"
               d="m 0,0 c 0,-3.243 2.187,-5.466 5.316,-5.466 3.13,0 5.316,2.223 5.316,5.466 0,3.017 -2.036,5.541 -5.316,5.541 C 2.036,5.541 0,3.017 0,0 m 21.038,0.151 c 0,-9.124 -7.051,-14.59 -15.722,-14.59 -8.671,0 -15.722,5.466 -15.722,14.59 0,8.936 7.088,14.742 15.722,14.742 8.633,0 15.722,-5.806 15.722,-14.742" />
          </g>
          <g
             transform="translate(151.2974,376.9604)"
             id="g1732">
            <path
               inkscape:connector-curvature="0"
               id="path1734"
               style="fill:#263379;fill-opacity:1;fill-rule:nonzero;stroke:none"
               d="m 0,0 c -1.658,1.547 -3.731,2.866 -6.07,2.866 -3.09,0 -5.617,-2.45 -5.617,-5.542 0,-3.13 2.678,-5.542 5.769,-5.542 2.375,0 4.26,1.017 5.918,2.639 l -0.301,-10.633 c -1.659,-0.792 -5.505,-1.13 -7.352,-1.13 -8.105,0 -14.44,6.295 -14.44,14.402 0,8.294 6.523,14.93 14.855,14.93 2.338,0 4.751,-0.415 6.937,-1.169 z" />
          </g>
          <g
             transform="translate(180.973,388.4983)"
             id="g1736">
            <path
               inkscape:connector-curvature="0"
               id="path1738"
               style="fill:#263379;fill-opacity:1;fill-rule:nonzero;stroke:none"
               d="m 0,0 v -16.816 c 0,-8.293 -5.203,-12.064 -13.158,-12.064 -7.956,0 -13.158,3.771 -13.158,12.064 V 0 h 10.331 v -15.836 c 0,-2.224 0.074,-4.184 2.827,-4.184 2.751,0 2.827,1.96 2.827,4.184 V 0 Z" />
          </g>
          <g
             transform="translate(187.0831,370.2502)"
             id="g1740">
            <path
               inkscape:connector-curvature="0"
               id="path1742"
               style="fill:#263379;fill-opacity:1;fill-rule:nonzero;stroke:none"
               d="m 0,0 0.528,-0.416 c 1.848,-1.432 4.072,-2.601 6.447,-2.601 1.018,0 2.639,0.415 2.639,1.697 0,1.282 -1.357,1.396 -2.299,1.584 L 5.24,0.64 c -4.032,0.716 -7.426,3.092 -7.426,7.541 0,6.749 6.145,10.519 12.328,10.519 3.243,0 6.221,-0.792 9.012,-2.489 L 16.363,8.936 c -1.772,1.205 -3.77,2.148 -5.993,2.148 -0.907,0 -2.226,-0.34 -2.226,-1.508 0,-1.055 1.282,-1.206 2.074,-1.395 l 2.337,-0.528 c 4.374,-0.98 7.541,-3.318 7.541,-8.144 0,-6.786 -6.184,-10.141 -12.329,-10.141 -3.583,0 -7.728,0.98 -10.934,2.6 z" />
          </g>
          <g
             transform="translate(212.0699,371.8859)"
             id="g1744">
            <path
               inkscape:connector-curvature="0"
               id="path1746"
               style="fill:#918f90;fill-opacity:1;fill-rule:nonzero;stroke:none"
               d="m 0,0 c 0,-5.417 4.222,-9.942 9.454,-9.942 5.231,0 9.453,4.525 9.453,9.942 0,5.448 -4.159,9.942 -9.453,9.942 C 4.161,9.942 0,5.448 0,0 m 21.48,-0.033 c 0,-6.915 -5.447,-12.396 -12.026,-12.396 -6.577,0 -12.025,5.481 -12.025,12.396 0,6.884 5.448,12.46 12.025,12.46 6.579,0 12.026,-5.576 12.026,-12.46" />
          </g>
          <g
             transform="translate(236.4849,384.9189)"
             id="g1748">
            <path
               inkscape:connector-curvature="0"
               id="path1750"
               style="fill:#918f90;fill-opacity:1;fill-rule:nonzero;stroke:none"
               d="m 0,0 17.992,-19.629 v 18.61 h 2.57 V -26.13 L 2.57,-6.534 V -25.046 H 0 Z" />
          </g>
          <g
             transform="translate(261.146,383.8997)"
             id="g1752">
            <path
               inkscape:connector-curvature="0"
               id="path1754"
               style="fill:#918f90;fill-opacity:1;fill-rule:nonzero;stroke:none"
               d="M 0,0 H 11.963 V -2.486 H 2.57 v -7.138 h 9.118 v -2.487 H 2.57 v -9.432 h 9.393 v -2.485 H 0 Z" />
          </g>
          <g
             transform="translate(105.4213,348.834)"
             id="g1756">
            <path
               inkscape:connector-curvature="0"
               id="path1758"
               style="fill:#231f20;fill-opacity:1;fill-rule:nonzero;stroke:none"
               d="m 0,0 c -0.292,-0.152 -0.61,-0.265 -0.915,-0.398 -0.272,-0.112 -0.405,-0.384 -0.457,-0.636 -0.08,-0.371 -0.04,-0.61 0.384,-0.61 0.199,0 0.669,0.152 0.795,0.749 z M 0.437,-1.989 C 0.398,-1.996 0.358,-2.002 0.312,-2.016 c -0.445,-0.019 -0.604,0.02 -0.551,0.524 h -0.013 c -0.193,-0.324 -0.59,-0.596 -0.942,-0.596 -0.736,0 -0.862,0.411 -0.722,1.081 0.032,0.139 0.166,0.67 0.722,0.895 0.325,0.133 1.127,0.411 1.207,0.464 0.133,0.086 0.146,0.232 0.192,0.424 0.086,0.417 -0.04,0.577 -0.464,0.577 -0.477,0 -0.59,-0.219 -0.676,-0.65 h -0.471 c 0.14,0.763 0.584,1.094 1.326,1.094 1.094,0 0.809,-0.915 0.789,-1.001 l -0.45,-2.115 c -0.02,-0.093 -0.06,-0.225 0.04,-0.279 0.066,-0.02 0.145,-0.013 0.218,-0.006 z" />
          </g>
          <g
             transform="translate(110.3844,348.7483)"
             id="g1760">
            <path
               inkscape:connector-curvature="0"
               id="path1762"
               style="fill:#231f20;fill-opacity:1;fill-rule:nonzero;stroke:none"
               d="m 0,0 c 0.106,0.504 0.292,1.438 -0.411,1.438 -0.438,0 -0.796,-0.344 -1.034,-1.478 -0.173,-0.796 -0.299,-1.519 0.417,-1.519 0.544,0 0.843,0.684 0.929,1.101 z M 0.65,3.07 H 1.174 L 0.119,-1.904 h -0.504 l 0.107,0.485 h -0.013 c -0.326,-0.438 -0.578,-0.583 -1.022,-0.583 -1.161,0 -0.723,1.623 -0.669,1.949 0.192,1.081 0.729,1.936 1.518,1.936 0.378,0 0.57,-0.159 0.749,-0.478 h 0.014 z" />
          </g>
          <g
             transform="translate(112.398,351.1546)"
             id="g1764">
            <path
               inkscape:connector-curvature="0"
               id="path1766"
               style="fill:#231f20;fill-opacity:1;fill-rule:nonzero;stroke:none"
               d="M 0,0 0.139,0.664 H 0.663 L 0.524,0 Z m -0.915,-4.31 0.782,3.687 H 0.391 L -0.391,-4.31 Z" />
          </g>
          <g
             transform="translate(113.3451,350.5314)"
             id="g1768">
            <path
               inkscape:connector-curvature="0"
               id="path1770"
               style="fill:#231f20;fill-opacity:1;fill-rule:nonzero;stroke:none"
               d="M 0,0 H 0.544 L 0.69,-3.242 H 0.703 L 2.228,0 h 0.544 l -1.89,-3.687 h -0.57 z" />
          </g>
          <g
             transform="translate(116.811,351.1546)"
             id="g1772">
            <path
               inkscape:connector-curvature="0"
               id="path1774"
               style="fill:#231f20;fill-opacity:1;fill-rule:nonzero;stroke:none"
               d="M 0,0 0.139,0.664 H 0.663 L 0.524,0 Z m -0.915,-4.31 0.782,3.687 H 0.391 L -0.391,-4.31 Z" />
          </g>
          <g
             transform="translate(119.4758,349.5439)"
             id="g1776">
            <path
               inkscape:connector-curvature="0"
               id="path1778"
               style="fill:#231f20;fill-opacity:1;fill-rule:nonzero;stroke:none"
               d="m 0,0 c 0.113,0.437 -0.007,0.643 -0.451,0.643 -0.371,0 -0.617,-0.172 -0.703,-0.558 -0.099,-0.476 0.279,-0.536 0.603,-0.689 0.484,-0.238 0.982,-0.371 0.836,-1.06 -0.146,-0.704 -0.73,-1.141 -1.485,-1.134 -0.325,-0.007 -0.703,0.106 -0.836,0.384 -0.159,0.292 -0.092,0.537 -0.04,0.789 h 0.498 c -0.113,-0.451 -0.02,-0.729 0.471,-0.729 0.424,0 0.742,0.172 0.835,0.623 0.113,0.524 -0.411,0.57 -0.756,0.729 -0.524,0.213 -0.816,0.405 -0.676,1.048 0.132,0.637 0.663,1.041 1.299,1.041 0.73,0 1.088,-0.331 0.916,-1.087 z" />
          </g>
          <g
             transform="translate(121.224,351.1546)"
             id="g1780">
            <path
               inkscape:connector-curvature="0"
               id="path1782"
               style="fill:#231f20;fill-opacity:1;fill-rule:nonzero;stroke:none"
               d="M 0,0 0.139,0.664 H 0.663 L 0.524,0 Z m -0.915,-4.31 0.783,3.687 H 0.392 L -0.391,-4.31 Z" />
          </g>
          <g
             transform="translate(123.6698,350.1867)"
             id="g1784">
            <path
               inkscape:connector-curvature="0"
               id="path1786"
               style="fill:#231f20;fill-opacity:1;fill-rule:nonzero;stroke:none"
               d="m 0,0 c -0.537,0 -0.862,-0.425 -1.101,-1.538 -0.185,-0.868 -0.145,-1.459 0.464,-1.459 0.624,0 0.902,0.591 1.088,1.459 C 0.69,-0.425 0.551,0 0,0 m -0.729,-3.441 c -0.796,0 -1.22,0.477 -0.882,2.069 0.239,1.113 0.796,1.817 1.704,1.817 0.908,0 1.173,-0.704 0.935,-1.817 C 0.69,-2.971 0.08,-3.441 -0.729,-3.441" />
          </g>
          <g
             transform="translate(126.3071,350.1277)"
             id="g1788">
            <path
               inkscape:connector-curvature="0"
               id="path1790"
               style="fill:#231f20;fill-opacity:1;fill-rule:nonzero;stroke:none"
               d="m 0,0 h 0.013 c 0.318,0.318 0.63,0.503 1.028,0.503 0.55,0 0.849,-0.291 0.709,-0.941 L 1.147,-3.283 H 0.623 L 1.2,-0.584 c 0.08,0.385 0.007,0.643 -0.417,0.643 -0.193,0 -0.392,-0.072 -0.558,-0.206 -0.258,-0.192 -0.324,-0.404 -0.384,-0.669 l -0.524,-2.467 h -0.524 l 0.782,3.687 h 0.511 z" />
          </g>
          <g
             transform="translate(131.953,350.1867)"
             id="g1792">
            <path
               inkscape:connector-curvature="0"
               id="path1794"
               style="fill:#231f20;fill-opacity:1;fill-rule:nonzero;stroke:none"
               d="m 0,0 c -0.537,0 -0.862,-0.425 -1.101,-1.538 -0.185,-0.868 -0.145,-1.459 0.464,-1.459 0.624,0 0.902,0.591 1.088,1.459 C 0.69,-0.425 0.551,0 0,0 m -0.729,-3.441 c -0.796,0 -1.22,0.477 -0.882,2.069 0.239,1.113 0.796,1.817 1.704,1.817 0.908,0 1.173,-0.704 0.935,-1.817 C 0.69,-2.971 0.08,-3.441 -0.729,-3.441" />
          </g>
          <g
             transform="translate(134.2054,350.0875)"
             id="g1796">
            <path
               inkscape:connector-curvature="0"
               id="path1798"
               style="fill:#231f20;fill-opacity:1;fill-rule:nonzero;stroke:none"
               d="m 0,0 h -0.537 l 0.093,0.444 h 0.53 L 0.153,0.756 C 0.199,0.975 0.265,1.28 0.438,1.465 0.663,1.711 0.988,1.777 1.466,1.731 L 1.372,1.286 c -0.417,0.04 -0.576,0 -0.669,-0.45 L 0.617,0.444 H 1.194 L 1.1,0 H 0.524 l -0.689,-3.243 h -0.524 z" />
          </g>
          <g
             transform="translate(139.2928,346.8449)"
             id="g1800">
            <path
               inkscape:connector-curvature="0"
               id="path1802"
               style="fill:#231f20;fill-opacity:1;fill-rule:nonzero;stroke:none"
               d="m 0,0 h -1.747 l 1.224,7.146 H 1.224 L 0.753,4.415 h 2.26 L 3.484,7.146 H 5.231 L 4.007,0 H 2.26 l 0.492,2.878 h -2.26 z" />
          </g>
          <g
             transform="translate(148.0919,350.7888)"
             id="g1804">
            <path
               inkscape:connector-curvature="0"
               id="path1806"
               style="fill:#231f20;fill-opacity:1;fill-rule:nonzero;stroke:none"
               d="m 0,0 c -0.104,0.063 -0.293,0.095 -0.428,0.095 -0.807,0 -1.33,-1.005 -1.33,-2.02 0,-0.502 0.189,-0.763 0.513,-0.763 0.324,0 0.837,0.324 1.067,1.695 z M 1.559,-0.805 C 1.381,-1.789 1.224,-2.762 1.193,-3.944 h -1.654 l 0.126,1.14 h -0.021 c -0.376,-0.753 -0.994,-1.245 -1.621,-1.245 -0.994,0 -1.601,0.754 -1.601,1.842 0,1.872 1.422,3.558 2.94,3.558 0.334,0 0.722,-0.074 1.004,-0.283 h 0.021 l 0.115,0.157 1.454,0.094 z" />
          </g>
          <g
             transform="translate(154.767,350.7373)"
             id="g1808">
            <path
               inkscape:connector-curvature="0"
               id="path1810"
               style="fill:#231f20;fill-opacity:1;fill-rule:nonzero;stroke:none"
               d="m 0,0 h -2.02 l -0.261,-1.476 c -0.073,-0.366 -0.251,-1.056 0.346,-1.056 0.135,0 0.292,0 0.512,0.052 -0.073,-0.46 -0.146,-0.91 -0.209,-1.37 -0.241,-0.084 -0.774,-0.147 -1.151,-0.147 -0.858,0 -1.392,0.356 -1.392,1.077 0,0.712 0.272,1.915 0.44,2.92 h -0.586 l 0.304,1.244 0.512,0.032 0.303,1.183 1.664,0.324 -0.251,-1.507 H 0.23 L 0.533,2.552 2.197,2.878 1.946,1.276 H 3.045 L 2.73,0 H 1.716 L 1.455,-1.476 c -0.074,-0.366 -0.252,-1.056 0.344,-1.056 0.137,0 0.293,0 0.514,0.052 C 2.239,-2.94 2.166,-3.39 2.103,-3.85 1.862,-3.934 1.329,-3.997 0.952,-3.997 c -0.858,0 -1.392,0.356 -1.392,1.077 0,0.712 0.272,1.915 0.44,2.92" />
          </g>
          <g
             transform="translate(160.1872,349.9526)"
             id="g1812">
            <path
               inkscape:connector-curvature="0"
               id="path1814"
               style="fill:#231f20;fill-opacity:1;fill-rule:nonzero;stroke:none"
               d="m 0,0 c 0.638,0 0.994,0.282 0.994,0.533 0,0.189 -0.158,0.377 -0.502,0.377 -0.523,0 -0.9,-0.398 -1.005,-0.878 C -0.324,0.011 -0.147,0 0,0 m -0.659,-1.13 c 0,-0.554 0.596,-0.754 1.056,-0.754 0.523,0 1.089,0.115 1.538,0.315 l 0.136,-1.224 c -0.638,-0.304 -1.548,-0.419 -2.155,-0.419 -1.454,0 -2.281,0.711 -2.281,2.144 0,1.758 1.12,3.255 3.097,3.255 1.13,0 1.873,-0.649 1.873,-1.549 0,-1.099 -0.868,-1.674 -2.532,-1.674 -0.23,0 -0.46,0.01 -0.722,0.042 -0.01,-0.053 -0.01,-0.115 -0.01,-0.136" />
          </g>
          <g
             transform="translate(165.2825,350.8625)"
             id="g1816">
            <path
               inkscape:connector-curvature="0"
               id="path1818"
               style="fill:#231f20;fill-opacity:1;fill-rule:nonzero;stroke:none"
               d="M 0,0 C 0.377,0.691 1.025,1.318 1.946,1.329 L 1.622,-0.335 C 0.597,-0.251 0.011,-0.89 -0.137,-1.841 l -0.375,-2.176 h -1.747 l 0.533,3.138 c 0.115,0.743 0.25,1.528 0.314,2.03 L 0.137,1.183 -0.032,0 Z" />
          </g>
          <g
             transform="translate(170.7231,350.7888)"
             id="g1820">
            <path
               inkscape:connector-curvature="0"
               id="path1822"
               style="fill:#231f20;fill-opacity:1;fill-rule:nonzero;stroke:none"
               d="m 0,0 c -0.104,0.063 -0.293,0.095 -0.428,0.095 -0.806,0 -1.33,-1.005 -1.33,-2.02 0,-0.502 0.189,-0.763 0.514,-0.763 0.324,0 0.836,0.324 1.066,1.695 z M 1.559,-0.805 C 1.381,-1.789 1.224,-2.762 1.193,-3.944 h -1.654 l 0.126,1.14 h -0.021 c -0.376,-0.753 -0.993,-1.245 -1.621,-1.245 -0.994,0 -1.601,0.754 -1.601,1.842 0,1.872 1.423,3.558 2.94,3.558 0.335,0 0.722,-0.074 1.005,-0.283 h 0.021 l 0.115,0.157 1.454,0.094 z" />
          </g>
          <g
             transform="translate(175.2639,348.3207)"
             id="g1824">
            <path
               inkscape:connector-curvature="0"
               id="path1826"
               style="fill:#231f20;fill-opacity:1;fill-rule:nonzero;stroke:none"
               d="m 0,0 c 0,0.502 -1.904,0.669 -1.904,2.029 0,1.204 1.161,1.778 2.406,1.778 0.628,0 1.182,-0.125 1.497,-0.271 L 1.674,2.301 C 1.381,2.416 0.859,2.552 0.398,2.552 c -0.303,0 -0.554,-0.093 -0.554,-0.313 0,-0.461 1.946,-0.66 1.946,-1.904 0,-1.361 -1.162,-1.916 -2.48,-1.916 -0.639,0 -1.413,0.147 -1.79,0.357 l 0.336,1.244 c 0.355,-0.147 1.077,-0.345 1.579,-0.345 C -0.147,-0.325 0,-0.178 0,0" />
          </g>
          <g
             transform="translate(177.1472,345.5583)"
             id="g1828">
            <path
               inkscape:connector-curvature="0"
               id="path1830"
               style="fill:#231f20;fill-opacity:1;fill-rule:nonzero;stroke:none"
               d="M 0,0 C 0.576,0.973 0.952,2.05 1.183,3.18 L 2.616,2.981 C 2.229,1.8 1.497,0.471 0.994,-0.23 Z" />
          </g>
          <g
             transform="translate(184.2725,346.8449)"
             id="g1832">
            <path
               inkscape:connector-curvature="0"
               id="path1834"
               style="fill:#231f20;fill-opacity:1;fill-rule:nonzero;stroke:none"
               d="m 0,0 h -1.747 l 1.224,7.146 h 1.747 z" />
          </g>
          <g
             transform="translate(190.8324,350.3813)"
             id="g1836">
            <path
               inkscape:connector-curvature="0"
               id="path1838"
               style="fill:#231f20;fill-opacity:1;fill-rule:nonzero;stroke:none"
               d="m 0,0 -0.576,-3.536 h -1.757 l 0.471,2.72 c 0.062,0.408 0.24,1.203 -0.367,1.203 -0.387,0 -0.952,-0.513 -1.161,-1.768 l -0.367,-2.155 h -1.747 l 0.534,3.139 c 0.126,0.732 0.23,1.433 0.314,2.029 l 1.58,0.032 -0.116,-0.995 h 0.021 c 0.514,0.785 1.236,1.077 1.863,1.077 C -0.22,1.746 0.168,0.983 0,0" />
          </g>
          <g
             transform="translate(193.2805,349.0838)"
             id="g1840">
            <path
               inkscape:connector-curvature="0"
               id="path1842"
               style="fill:#231f20;fill-opacity:1;fill-rule:nonzero;stroke:none"
               d="m 0,0 c 0,-0.763 0.492,-0.993 0.962,-0.993 0.44,0 0.869,0.114 1.193,0.23 L 2.239,-2.03 c -0.428,-0.188 -1.193,-0.314 -1.81,-0.314 -1.296,0 -2.249,0.691 -2.249,2.145 0,1.863 1.37,3.255 3.389,3.255 0.482,0 0.932,-0.085 1.256,-0.2 L 2.49,1.538 C 2.281,1.611 1.967,1.695 1.622,1.695 0.753,1.695 0,1.183 0,0" />
          </g>
          <g
             transform="translate(197.3512,348.8329)"
             id="g1844">
            <path
               inkscape:connector-curvature="0"
               id="path1846"
               style="fill:#231f20;fill-opacity:1;fill-rule:nonzero;stroke:none"
               d="m 0,0 c 0.522,0 0.857,-0.366 0.857,-0.869 0,-0.606 -0.522,-1.244 -1.202,-1.244 -0.514,0 -0.859,0.366 -0.859,0.857 C -1.204,-0.638 -0.691,0 0,0" />
          </g>
          <g
             transform="translate(219.168,390.2648)"
             id="g1848">
            <path
               inkscape:connector-curvature="0"
               id="path1850"
               style="fill:#f5970f;fill-opacity:1;fill-rule:nonzero;stroke:none"
               d="m 0,0 c 0.569,-1.298 1.034,-2.617 1.414,-3.943 0.311,0.023 0.626,0.038 0.942,0.038 1.174,0 2.317,-0.154 3.411,-0.442 C 5.463,-2.704 5.068,-1.032 4.564,0.657 4.56,0.67 4.59,0.655 4.602,0.655 c -6.361,19.704 -24.845,33.961 -46.667,33.961 -16.573,0 -31.227,-8.222 -40.103,-20.809 8.725,10.948 22.172,17.967 37.258,17.967 C -24.164,31.774 -6.53,18.508 0,0" />
          </g>
          <g
             transform="translate(221.5245,357.41)"
             id="g1852">
            <path
               inkscape:connector-curvature="0"
               id="path1854"
               style="fill:#f5970f;fill-opacity:1;fill-rule:nonzero;stroke:none"
               d="m 0,0 c -0.918,0 -1.816,0.094 -2.688,0.269 -6.619,-17.622 -23.371,-30.283 -43.166,-30.859 0.474,-0.015 0.953,-0.022 1.432,-0.022 20.579,0 38.179,12.684 45.454,30.655 C 0.69,0.018 0.347,0 0,0" />
          </g>
        </g>
      </g>
    </g>
  </g>
</svg>
