<svg xmlns="http://www.w3.org/2000/svg" width="353.825" height="106.911" viewBox="0 0 353.825 106.911">
  <g id="Group_2" data-name="Group 2" transform="translate(-96.314 -67.07)">
    <path id="Path_1" data-name="Path 1" d="M144.009,115.738q1.23-1.229,2.278-2.494l.024-.028a25.175,25.175,0,0,0,3.525-5.458,28.215,28.215,0,1,0-25.308,15.74,28.381,28.381,0,0,0,4.746-.4,8.8,8.8,0,0,1,.654.956q.361.492.756.958a15.868,15.868,0,0,0,1.742,1.757,14.083,14.083,0,0,0,4.391,2.588,18.879,18.879,0,0,0,4.553,1.115,24.83,24.83,0,0,0,4.015.093,23.381,23.381,0,0,0,3.885-.68S136.683,123.065,144.009,115.738Z" transform="translate(0 0)" fill="#77c5d5"/>
    <g id="Group_1" data-name="Group 1" transform="translate(163.084 99.294)">
      <path id="Path_2" data-name="Path 2" d="M425.315,121.25a5.175,5.175,0,0,1-5.086-5.171,5.1,5.1,0,0,1,5.086-5.088,5.158,5.158,0,0,1,5.088,5.088A5.233,5.233,0,0,1,425.315,121.25Z" transform="translate(-213.711 -106.159)" fill="#015469"/>
      <path id="Path_3" data-name="Path 3" d="M213.771,151.025c-2.921-.328-5.041-1.968-7.29-5.866l-5-8.731c7.122-1.611,11.19-7.206,11.19-14.411,0-8.224-5.171-15.344-17.209-15.344H175.453v50.864H185.8V137.275h5.935l5.426,10.851c3.645,7.377,8.563,10,14.665,10a21.615,21.615,0,0,0,5.86-.89A19.484,19.484,0,0,1,213.771,151.025Zm-20.006-21.04H185.8V114.046h7.97c6.443,0,8.732,3.477,8.732,8.055C202.5,126.593,200.207,129.984,193.765,129.984Z" transform="translate(-175.453 -105.484)" fill="#015469"/>
      <path id="Path_4" data-name="Path 4" d="M240.89,162.5c-9.579,0-15.853-6.7-15.853-15.683a14.953,14.953,0,0,1,15.175-15.43c7.546,0,13.48,5,13.48,11.868a19.974,19.974,0,0,1-.508,4.154H234.363c0,4.238,2.034,8.477,9.156,8.477A14.277,14.277,0,0,0,252,152.922l2.374,4.662A20.144,20.144,0,0,1,240.89,162.5Zm-.593-25.433c-2.544,0-4.833,1.526-5.595,5.6H244.96a8.134,8.134,0,0,0,.083-1.188C245.044,139.019,243.434,137.068,240.3,137.068Z" transform="translate(-183.203 -109.347)" fill="#015469"/>
      <path id="Path_5" data-name="Path 5" d="M280.856,161.772h-7.376l-12.886-29.077h9.156l7.459,18.82,7.545-18.82h8.986Z" transform="translate(-188.76 -109.551)" fill="#015469"/>
      <path id="Path_6" data-name="Path 6" d="M366.914,162.5A13.49,13.49,0,0,1,357,158.517V183.44h-9.5V133.084l8.562-.932.424,3.985c2.289-3.392,6.866-4.748,10.427-4.748,7.883,0,13.818,6.612,13.818,15.6C380.732,155.888,374.8,162.5,366.914,162.5Zm4.323-15.514c0-5.595-2.967-8.647-7.036-8.647A8.516,8.516,0,0,0,357,142.494v8.9a8.516,8.516,0,0,0,7.205,4.154C368.269,155.55,371.237,152.5,371.237,146.987Z" transform="translate(-202.343 -109.347)" fill="#015469"/>
      <path id="Path_7" data-name="Path 7" d="M401.7,146.479V161.4h-9.5V133.084l8.648-.932.508,5.511a11.944,11.944,0,0,1,10.6-6.274v9.156C406.79,139.019,401.7,141.562,401.7,146.479Z" transform="translate(-209.331 -109.347)" fill="#015469"/>
      <path id="Path_8" data-name="Path 8" d="M420.631,161.415V132.506l9.5-1.017v29.926Z" transform="translate(-213.774 -109.363)" fill="#015469"/>
      <path id="Path_9" data-name="Path 9" d="M459.245,161.4V145.546c0-4.663-1.7-6.613-5.087-6.613a7.292,7.292,0,0,0-6.95,7.037V161.4h-9.5V133.084l8.648-.932.508,5.426c1.781-3.646,6.783-6.189,10.936-6.189,7.8,0,10.935,5.426,10.935,12.631V161.4Z" transform="translate(-216.443 -109.347)" fill="#015469"/>
      <path id="Path_10" data-name="Path 10" d="M318.253,125.864c-6.952-1.694-8.732-3.983-8.732-6.95,0-3.646,2.967-5.849,7.968-5.849,4.494,0,9.579,2.034,13.14,4.408l2.2-7.207a25.764,25.764,0,0,0-15.259-5c-10.936,0-17.548,6.019-17.548,14.328,0,7.29,4.238,12.969,14.919,15.6,8.309,2.034,10.682,4.238,10.682,8.477,0,4.494-3.9,7.037-8.986,7.037a20.594,20.594,0,0,1-9.268-2.272,26.781,26.781,0,0,1-7.011-5.284l-1.645-1.669-3.314,7.484a45.215,45.215,0,0,0,5.311,4.664,26.863,26.863,0,0,0,7.164,3.426,29.874,29.874,0,0,0,8.764,1.28c9.579,0,18.566-4.747,18.566-15.684C335.207,133.833,330.121,128.831,318.253,125.864Z" transform="translate(-194.201 -105.264)" fill="#015469"/>
      <path id="Path_11" data-name="Path 11" d="M509.609,132.491h-6.188c-4.408,0-6.7-1.1-10.512-1.1-8.816,0-14.072,5.679-14.072,11.614a11.084,11.084,0,0,0,6.7,10.088c-3.391,1.018-6.1,3.9-6.1,6.867,0,5.425,5.341,7.714,12.8,8.307,6.274.594,8.477,2.12,8.477,4.833,0,2.627-2.967,4.663-7.884,4.663-4.324,0-7.884-1.441-7.884-4.155a3.575,3.575,0,0,1,.292-1.411,19.385,19.385,0,0,1-5.36-2.319A6.384,6.384,0,0,0,476.8,175.3c0,4.832,6.7,8.732,16.361,8.732,8.985,0,16.445-4.748,16.445-12.122,0-6.529-4.492-10.682-14.836-11.7-4.323-.424-6.7-.847-6.7-2.543,0-1.781,1.526-2.544,6.189-2.967,6.274-.508,12.376-5,12.376-11.7a10.459,10.459,0,0,0-1.186-4.409h4.153Zm-16.615,16.531c-3.222,0-5.511-2.289-5.511-6.018s2.289-6.019,5.511-6.019c3.137,0,5.511,2.289,5.511,6.019S496.13,149.022,492.993,149.022Z" transform="translate(-222.553 -109.347)" fill="#015469"/>
    </g>
  </g>
</svg>
